<svg version="1.2" xmlns="http://www.w3.org/2000/svg" viewBox="0 0 2048 1024" width="2048" height="1024"><style>.a{fill:#fbfafb}.b{fill:#fcfcfc}.c{fill:#fbfafa}.d{fill:#f7f7f7}.e{fill:#faf9f9}.f{fill:#f9f8f9}.g{fill:#f7f6f7}.h{fill:#f7f5f6}.i{fill:#f5f3f4}.j{fill:#f5f4f6}.k{fill:#efeef0}.l{fill:#fcfbfb}.m{fill:#fff}</style><path fill-rule="evenodd" class="a" d="m668.7 607.7c2.5-2.4 4.8-4.5 8.1-7.4-3.8 19.3-9.1 36.9-17.2 53.6q-0.8-0.2-1.7-0.4c0.3-1.5 0.6-3 1-4.4 0.8-3 2-6 2.4-9.1 0.6-5.3-4.2-9-8.6-6.1-3.5 2.2-6.5 5.7-8.4 9.4-2.5 5.2-5.9 9.3-10.2 13.1-6.1 5.4-11.4 11.6-16.5 17.9-2.1 2.6-3.8 4-7 3.3-9.6-2-18.4 0-26.7 5.2-1.6 1-4.7 1.2-6.4 0.3-7.5-3.8-14-3.1-20.5 2.6-4.7 4.1-10.1 7.5-14.9 11.1-4.9-4.8-9.7-9.2-14.2-13.8-3.2-3.4-7-5.1-11.6-4.8-6.3 0.4-12.6 0.7-18.9 1.5-3.1 0.3-4.9-0.3-6.3-3.2-3.4-7.4-6.9-14.7-10.8-21.9-1.3-2.5-3.5-5.1-5.9-6.3-7.1-3.5-14.5-6.7-21.9-9.4-4.3-1.6-5.2-3.8-4.2-7.8 2.3-9.4 3.4-19.2-0.9-28-4.4-9.2-10.7-17.4-16.7-26.7 0.8-0.9 2.3-2.9 4-4.6 12.4-12.1 14.7-27.1 11.8-43.3-0.8-4.7-0.5-7.6 4.2-9.9 17.9-8.8 27.7-23.7 31.4-43 0.2-1.4 2.2-3 3.7-3.5 3-0.9 6.2-1.6 9.3-1.6 9.1 0.2 14.2-5 18.1-12.3 2-3.8 4.3-7.5 6.6-11.5 5.8 2.7 11.5 5.3 17.8 8.2 8.2-7.9 16.7-15.8 24.9-24 59.9-58.7 119.6-117.4 179.4-176.1 1.9-1.9 3.9-3.7 6-5.3 3.1-2.3 6.4-2 9.2 0.5 2.8 2.4 3.7 5.5 1.9 9-0.8 1.7-2 3.4-3.4 4.8-40.5 43.3-81 86.7-121.8 129.7-21.6 22.9-43.8 45.2-65.7 67.9-2.1 2.2-4.2 4.9-4.9 7.7-0.9 3.9 1.4 7.1 4.8 9.1 3.5 2 6.8 1.2 9.6-1.5q15.7-15 31.4-30.1c40-38.7 79.7-77.7 120-116 44.3-42.2 89-83.9 133.6-125.7 1.4-1.4 2.9-2.7 4.6-3.9 3.4-2.4 7.1-2.4 9.9 0.7 3 3.3 3 7.1-0.1 10.4-7.3 7.5-14.8 14.8-22.2 22.3-48 49.1-95.9 98.2-143.9 147.3-20 20.5-40.2 40.8-60.3 61.2-4.9 5-5.6 9.3-2.2 13.2 3.5 4 8.6 4.3 13.8-0.1 12.4-10.7 24.8-21.7 36.9-32.9 47.6-44.5 95-89.1 142.6-133.5 2.1-2 4.9-4 7.5-4.3 2.4-0.4 5.9 1 7.2 2.8 1.4 1.9 1.2 5.3 0.8 7.9-0.3 1.7-2 3.4-3.4 4.7q-86.5 85.3-173.1 170.5c-2.3 2.2-4.7 4.2-6.9 6.5-3.1 3.2-3.1 6.9-0.5 10.4 2.5 3.3 6.5 3.8 10.2 0.8 7.3-6 14.4-12.4 21.6-18.6q55.6-48.4 111.1-96.8c5.6-4.9 9.4-5.4 12.5-1.7 2.7 3.1 1.7 7.6-2.6 11.7-37.5 35.8-74.9 71.7-112.5 107.2-21.2 20.1-42.8 39.6-64.2 59.4-1.4 1.3-2.8 2.5-4 3.8-3.2 3.6-3.4 8.1-0.6 11.3 3 3.4 6.9 3.8 11 0.2 9.8-8.5 19.3-17.4 29-26q62.3-54.4 124.6-108.8c13.1-11.5 26.4-22.9 39.7-34.3 1.4-1.2 2.7-2.5 4.3-3.3 3.5-1.9 6.9-1.7 9.4 1.6 2.3 3 1.9 6.3-0.9 8.9-5 4.7-10.1 9.2-15.1 13.8q-97.6 89.9-195.3 179.8c-1.7 1.6-3.4 3.1-4.9 4.9-3.6 4.2-3.5 9.2 0 13.1 3.4 3.6 8.2 3.9 12.7 0.6 3.2-2.4 6.1-5.2 9.4-8zm-84.6-92.3c-0.6-10.6-0.6-10.7-10.9-13.3-14-3.4-28.6-4.9-41.4-12.3-1.3-0.8-4-0.2-5.5 0.6q-19.4 10.9-38.5 22.2c-1.3 0.8-2.2 2.7-2.9 4.2q-9.3 22.3-18.4 44.7c-0.7 1.7-1.2 3.9-0.8 5.6 1.6 8.3 2.8 16.4 0.4 24.7-0.6 1.8-0.1 4.3 0.7 6.1 6.4 13 12.9 25.9 19.7 38.7 1.3 2.5 4 4.8 6.6 6.1 8.9 4.2 18.7 6.8 26.7 12.2 14.4 9.6 28.4 9.1 43.3 2.6 6.7-2.9 13.6-3.7 20.9-2.7 3.3 0.4 7.3 0.3 10-1.3 7.2-4.4 14-9.6 20.7-14.7 1.6-1.2 2.8-3.2 3.4-5.1 3.1-10.2 6.1-20.3 8.9-30.5 0.8-2.8 1.1-5.9 0.7-8.7-1.6-10.1-3.9-20.2-5.4-30.4-0.4-3.2-1.7-4.5-4.4-5.4-9-2.9-18-5.9-27-8.8-2.7-0.9-3.8-2.2-4-5.3-0.7-9.4-1.8-18.9-2.8-29.2zm43-10.8c3.5-3.5 7.2-6.9 10.5-10.6 4-4.3 3.9-9.1 0.1-12.8-3.9-3.8-8.7-3.9-12.8 0.1-6.2 6-12.2 12.2-18.2 18.5-3.5 3.7-3.4 8.4-0.1 12 3.5 3.7 7.7 4.1 12 0.7 2.8-2.2 5.3-4.9 8.5-7.9z"/><path fill-rule="evenodd" class="b" d="m351.5 738c-3.5-0.8-6.9-1.1-9.5-2.7-6.5-4.1-10.5-10.4-14.1-17.1-2.8-5.3-6.9-10.1-10.8-14.7-3.4-3.8-8.1-4.8-12.8-2.5-5.7 2.6-10.3 0.6-14.9-2.5-9.4-6.4-14.8-15.3-15.3-26.7-0.6-13-4.2-24.8-11.2-36.2-6.4-10.4-15.5-17.2-25.4-23.3-5.2-3.1-7.4-7-8.7-12.8-10.5-47.7-4.8-93.9 15.5-137.8 34.9-75.3 94.3-119.1 176.4-131.4 35.6-5.3 70.4-0.5 104.4 11 4.3 1.5 6.3 4.1 7.5 8.3 3.9 13.9 7 11.5-8.6 19.2-4 2-7.9 4.9-11.1 8.1-7.3 7.1-14.3 14.5-21 22.1-4.3 4.8-8.7 2.2-13.3 1.2-4.1-0.9-3.3-4.4-3.7-7.2q-1.7-12.9-3-25.8c-0.3-3.2-1.5-5.2-4.6-6.8-12.1-5.9-24.1-12.2-36-18.4-8.7-4.5-17.4-5.4-26.2-0.6-1.6 0.9-2.8 2.4-4.3 3.6 1.4 1.4 2.5 2.9 4 4 5.5 3.9 11.2 7.6 16.6 11.7 3.4 2.8 3.8 5.9 0.4 9.7-9.4 10.4-7.1 22.9-5.5 35.2 1.7 13.4 6.8 25.3 15.5 35.6 1.5 1.8 2.6 3.8 4.6 6.8-5.4 1.1-9.8 2-14.3 2.9-8.4 1.8-16.9 3.3-25.4 5.3-3.7 0.8-7.6 2.4-8 7-0.4 4.5 2.7 6.9 6.1 9q4.4 2.7 8.8 5.4 0.2 0.8 0.3 1.6c-7.9 3.3-15.6 6.8-23.6 9.8-13.6 5.4-27.7 10-39 19.7-7.5 6.4-14.7 13.6-20.7 21.5-11.2 14.8-26.8 21.3-43.9 25.5-2.8 0.6-6.5-0.7-9.3-2.1-12.2-6.4-23.4-1.6-26.3 11.9-2.7 12.6-0.8 23.5 10.7 31.9 4.2 3 6.7 8.8 9 13.8 2.7 6 3.9 12.7 6.6 18.8 3.4 7.8 9.3 10.1 17.6 7.6 0.5-0.2 1-0.3 1.4-0.5 7.9-5.3 14.3-2.4 21.4 2.7 16.4 11.5 34.4 20.3 53.6 26.3 9.7 3 16.5 8.2 19.7 18.4 2.9 9.3 9.6 15.4 19.4 17.8 3.9 0.9 7.7 2.1 11.5 3.4 14.2 5 23 13.9 19 30.5-1.3 5.8-2.9 11.7-5.4 17-2.8 5.8-8 7.4-14.3 6-13.2-3-24.7-8.2-33.4-19.3-7.3-9.5-9.3-9.4-20.4-4.2-1.8 0.8-3.7 1.5-6 2.3zm-30.1-266.3c-8.8 3.8-17.8 7.3-26.4 11.5-4.3 2-5.4 6.9-3.4 11.1 1.9 4 6.3 5.8 10.9 3.9q10.6-4.4 20.9-9.4c3.6-1.7 6.1-4.7 5.8-9.1-0.3-4.4-2.9-6.8-7.8-8z"/><path class="c" d="m466.8 313c-36.4-1.8-71.4 2.2-104.8 15.9-73.9 30.3-123.2 83.5-145.1 160.7-20.3 72-7.9 139.3 33.7 201 37 55 88 91.4 153.3 103.3 99.3 18.2 183-10.9 246.6-91.1 23-29.2 37-62.8 42.3-99.8 0.4-2.5 0.9-5 0.7-7.5-0.6-6.1 2.7-9.7 7-13.2 5.1-4.2 10-8.8 16.1-14-0.7 11.1-0.7 21.4-2.1 31.4-9.2 65.4-39.7 119.1-90.7 160.9-39.4 32.2-84.9 51.2-135.6 57.5-59.5 7.5-115.4-3.8-167.4-33.4-44.7-25.4-78.5-61.7-102.9-106.9-23.7-44-34.2-91-30.8-140.9 4-58.6 25.4-110.3 64.1-154.6 35.6-40.7 79.5-68.8 132.1-81.7 79-19.3 152.6-6.1 220.1 39.6 4.2 2.7 8 6 11.3 8.5q-7 8.2-13.5 15.8c-40-31.2-84.5-47.9-134.4-51.5z"/><path class="d" d="m613.3 720.3c-18.3 17.3-38.2 31.7-61 41.7-19.4 8.5-39.5 14.5-60.6 17.1-5.1 0.6-6.6-0.9-7.4-6.2-0.7-4.6 1.9-6.1 5.9-6.7 27.4-4.6 53.4-13.5 78.1-26.3 21.7-11.3 41.4-25.3 59.5-42.1 3.2 1.8 3.1 3.9 0.8 6.3-5 5.3-10.1 10.6-15.3 16.2z"/><path class="e" d="m588.8 204.4c2.1 6.2 3.3 12.5 6.4 17.5 3.1 4.9 7.8 9.2 12.6 12.4 5 3.3 11 5 18.1 8.1-22.9 5.9-35.3 20-38.5 42.8-3.8-22.5-15-37.8-38.6-42.8 21.4-6.7 36-18.7 37.3-42.5q0.6 0.1 1.2 0.3c0.5 1.3 0.9 2.6 1.5 4.2z"/><path class="f" d="m832.3 512.8c5.3 2.6 10.2 4.9 14.7 7.1-6.3 4-13.8 7.1-18.8 12.5-5 5.3-7.4 13-10.5 18.8-2.9-5.6-5.4-13.2-10.4-18.6-5.1-5.4-12.6-8.6-19.5-13 16-4.3 27.1-13.9 29.7-31.8 3.4 9.4 5.8 19 14.8 25z"/><path class="g" d="m801.2 613.8c4.6 3.2 9 6.1 14.1 9.5-11.7 3.4-19.2 11.2-20.9 23.9-3.2-5.6-5.1-11.3-8.9-15.4-3.8-4-9.3-6.4-14-9.4 16-10.1 16-10.1 21.8-23.5 2.5 4.7 5.1 9.7 7.9 14.9z"/><path class="d" d="m246 290.8c1.8-3.8 3.4-7.4 5.8-12.4 2.5 12.8 9.2 20.5 21.1 24.3-11.5 3.7-18.6 10.9-20.7 22.6-3.2-5.4-5.3-10.7-9-14.4-3.6-3.6-8.7-5.6-12.6-8 4.8-3.7 10-7.7 15.4-12.1z"/><path class="h" d="m235.2 773.6c4.5 3.4 8.7 6.5 13.7 10.1-9.4 2.7-16.3 8.7-19.3 18.9-3.2-10.1-9.8-16.2-21.3-19.3 10.9-4.2 18.3-10 20.9-21.4 2.3 4.6 4.1 8 6 11.7z"/><path class="h" d="m181.3 349.7c-3.2-2.6-6.1-4.9-9.5-7.5 1-0.6 2.1-1.2 2.9-2 3-2.7 6.3-5.3 8.8-8.4 2.1-2.5 3.4-2.6 5.5-0.3 3.3 3.7 6.8 7.3 10.1 10.8-3.9 4.1-8.5 8.9-13.4 14-1.5-2.3-2.8-4.3-4.4-6.6z"/><path class="h" d="m326.2 238.1c0.9-1.4 1.4-3.1 2.4-3.5 1.3-0.6 3.7-0.9 4.6-0.1 3.8 3.6 7.3 7.7 10.3 10.9-3.2 3.7-6.7 8.1-10.6 12.1-0.6 0.7-3.2 0.3-4.1-0.5-3.9-3.8-7.5-7.9-11.5-12 2.3-1.8 5.5-4.2 8.9-6.9z"/><path class="i" d="m630.3 281.7c-3.2-2.6-6.1-4.9-8.3-6.7 3.7-3.9 7.5-7.9 11.5-11.8 0.6-0.6 2.7-0.8 3.2-0.3 4 4 7.8 8.1 11.5 12-3.9 3.8-8.4 8.3-13.3 13.1q-2-2.8-4.6-6.3z"/><path class="i" d="m477.2 226.8c1.1 0.7 1.9 1.2 2.1 1.3-3.7 4.2-7.1 8.5-10.8 12.3-0.7 0.8-3.4 0.8-4.1 0.1-3.8-3.8-7.2-8-11.1-12.6 0.4-0.3 1.7-0.9 2.7-1.8 2.4-2.1 5.1-4.1 7-6.7 2.7-3.4 3.9-3.4 6.6 0.1 2.1 2.6 4.8 4.8 7.6 7.3z"/><path class="j" d="m188.3 726.8c-2.5-1.7-4.7-3-6.2-4 3.8-4.1 7.3-8.2 11.2-11.9 0.5-0.6 3.1 0.1 4 0.9 3.4 3.4 6.6 7 10.3 11.1 0.1-0.1-0.5 0.7-1.3 1.4-2.6 2.6-5.6 4.9-7.9 7.8-3.2 3.9-4.3 3.9-6.8-0.6-0.8-1.6-2-3-3.3-4.7z"/><path class="i" d="m735.4 759c1.3 0.1 2.6 0 3.1 0.6 3.4 3.6 6.6 7.4 9.6 10.8-3 3.5-6.4 7.7-10.1 11.7-0.5 0.5-2.7 0.3-3.3-0.3-3.8-3.9-7.3-8-10.5-11.6 3.3-3.3 7.1-7.1 11.2-11.2z"/><path class="k" d="m586.2 373.9c-1.5 2.8-3.4 5.5-5.9 9.1-3.6-7.4-6.5-13.4-9.4-19.3q0.4-0.3 0.8-0.6c4.8 3.5 9.5 7 14.5 10.8z"/><path fill-rule="evenodd" class="l" d="m491.3 550.3c3-7.6 5.8-14.9 8.7-22.1 0.7-1.6 1.8-3.3 3.2-4.1 7.6-4.5 15.3-8.7 23.1-12.9 1.3-0.7 3.1-1 4.5-0.7 8.6 2 17 4.3 25.5 6.5 3.4 0.8 6.8 1.4 10.5 2.1 1.3 13.2 2.7 26.3 3.8 39.4 0.3 3.2 1.6 4.7 4.5 5.5 8.7 2.7 17.4 5.6 26.2 8.1 3.3 0.9 4.4 2.6 4.8 5.8 0.5 4.7 1.4 9.3 2.5 13.8 1.2 4.6 1.1 9-0.5 13.6-2 5.9-3.3 12.1-5.2 18.1-0.6 1.8-1.9 3.6-3.3 4.7-3.5 2.8-7 5.9-11.1 7.6-3.2 1.4-7.3 0.8-11 1.1-4.5 0.4-9.6-0.2-13.5 1.7-13.6 6.4-26.1 7.1-39-2.3-5.5-4-12.8-5.5-19.1-8.4-1.9-0.9-4-2.4-5-4.2-3.5-5.9-6.3-12.1-9.9-18-4.6-7.6-8.7-15.2-5-24.6 0.4-1.1 0.4-2.7 0-3.9-2.8-9.8 0.1-18.3 5.3-26.8zm106.3 54c2.2-8.5 1-10.6-9-14.8-1.2 2.4-2.1 5.1-3.7 7.3-1.9 2.6-3.9 5.5-6.6 7-11.6 6.4-11.7 6.2-10.3 19.2 0 0.3 0.2 0.6 0.2 0.6 6.5 3.4 11.8 1.3 17.8-1.8 7.2-3.9 10.7-9 11.6-17.5zm-54 24.1c7.3-1.5 9.2-6 7.5-12.7-0.1-0.8-0.1-1.7-0.1-2.5-5.5-2.6-11.2-4.6-16.3-7.7-5.8-3.6-10.3-3.4-15.7 1.2-6.7 5.8-6.5 2.9-3 11.8 0.5 1.2 2.1 2.4 3.5 2.9q8.8 3.5 17.7 6.5c1.8 0.7 3.8 0.6 6.4 0.5zm6.7-87c-1.2 0.3-2.6 0.5-3.7 1-3.5 1.8-4.8 5.1-3.6 8.3 1 2.4 3.8 5.4 5.8 5.4 2.5 0.1 5.9-2.1 7.4-4.3 2.7-3.7 0.2-7.8-5.9-10.4z"/><path class="m" d="m1012.3 493h-39.1v-112.2h39.1q26.2-0.3 43.9 15.3 17.7 15.6 17.3 40.5 0.4 24.6-17.5 40.8-17.7 15.9-43.7 15.6zm-9.8-85.7v59.3h9.7q13.9 0 22.6-8.1 8.8-8.2 8.8-21.9 0-14-8.7-21.6-8.5-7.7-22.7-7.7zm81.9 29.6q-0.5-24 17.5-41.3 18.2-17.3 42.8-16.8 24.7-0.5 42.9 16.8 18.3 17.3 17.8 41.3 0.5 24.1-17.8 41.3-18.2 17.2-42.9 16.8-24.8 0.4-42.8-16.8-18-17.2-17.5-41.3zm91.1 0q0-13.8-8.8-22.4-8.7-8.9-21.8-8.9-13.6 0-22.1 8.7-8.5 8.7-8.5 22.6 0 13.9 8.5 22.8 8.5 8.5 22.1 8.5 13.3 0 21.9-8.7 8.7-8.7 8.7-22.6zm40.8 0q-0.5-24 17.5-41.3 18.2-17.3 42.9-16.8 24.6-0.5 42.8 16.8 18.4 17.3 17.9 41.3 0.5 24.1-17.9 41.3-18.2 17.2-42.8 16.8-24.9 0.4-42.9-16.8-18-17.2-17.5-41.3zm91.1 0q0-13.8-8.8-22.4-8.7-8.9-21.8-8.9-13.6 0-22.1 8.7-8.5 8.7-8.5 22.6 0 13.9 8.5 22.8 8.5 8.5 22.1 8.5 13.3 0 22-8.7 8.6-8.7 8.6-22.6zm103.7 0.2l47.8-58.3h9.4v114.2h-29.3v-47.1l-23.3 27.2h-9.3l-23.2-27v46.9h-29.2v-114.2h9.4zm72.2 32.8l19.7-15q5.5 7.2 11.2 10.9 5.8 3.6 13.8 3.6 11.6 0 11.6-8.2 0-3.6-2.2-5.4-2.2-1.9-9.2-5l-11.6-5.1q-28.4-12.6-28.4-33.8 0-14.8 10.9-24 11.1-9.2 28.4-9.2 27.2 0 38.4 22.7l-19.5 14.9q-4.3-6.3-8.5-9-4.3-2.9-10-2.9-10.1 0-10.1 7.2 0 3 2.1 5.1 2.2 1.8 7.6 4l12.9 5.5q15 6.3 21.8 14.3 7 7.8 7 19.5 0 16-11.8 25.5-11.5 9.5-29.4 9.5-14.9 0-26.8-6.6-11.8-6.8-17.9-18.5zm141.6 23.1h-39.1v-112.2h39.1q26.2-0.4 43.9 15.3 17.7 15.6 17.3 40.5 0.4 24.6-17.5 40.8-17.7 15.9-43.7 15.6zm-9.8-85.7v59.3h9.6q14 0 22.7-8.1 8.8-8.2 8.8-21.9 0-14-8.7-21.6-8.5-7.7-22.8-7.7zm185.7 85.7h-31.5l-4-9.4h-40.3l-4.1 9.4h-31.5l51-114.3h9.4zm-65.5-32.8h19.6l-9.7-26zm125.8-79.4h32.1l-38.4 69.2v43h-29.2v-42.6l-38.6-69.6h32.3l20.9 39.1zm-834.5 316.2h-29.3v-85.8h-33.6v-26.4h96.5v26.4h-33.6zm116.2-41.7l29.6 41.7h-32.6l-25.4-34.9h-12v34.9h-29.3v-112.2h44.1q18.8 0 31.1 10.7 12.2 10.5 12.2 27.9 0 21.1-17.7 31.9zm-25.5-45h-14.9v26.3h14.9q6.2 0 9.7-3.5 3.8-3.8 3.8-9.7 0-6-3.8-9.5-3.5-3.6-9.7-3.6zm167.1 86.7h-31.4l-4.1-9.4h-40.3l-4.1 9.4h-31.4l51-114.3h9.3zm-65.4-32.8h19.6l-9.7-26zm106.2 32.8h-29.2v-112.2h29.2zm92.7-56.1v-56.1h29.2v114.3h-9.4l-60.8-59v56.9h-29.2v-114.2h9.3zm131.6 56.1h-79.9v-112.2h77.8v26.3h-48.6v15.5h34.7v24.5h-34.7v19.5h50.7zm87.9-41.6l29.6 41.6h-32.7l-25.3-34.8h-12.1v34.8h-29.2v-112.2h44q18.9 0 31.1 10.8 12.3 10.5 12.3 27.8 0 21.1-17.7 32zm-25.5-45.1h-15v26.4h15q6.1 0 9.7-3.6 3.7-3.7 3.7-9.7 0-5.9-3.7-9.5-3.6-3.6-9.7-3.6z"/></svg>